<?xml version="1.0" encoding="utf-8"?>
<!-- Generator: Adobe Illustrator 27.8.1, SVG Export Plug-In . SVG Version: 6.00 Build 0)  -->
<svg version="1.1" id="Layer_1" xmlns="http://www.w3.org/2000/svg" xmlns:xlink="http://www.w3.org/1999/xlink" x="0px" y="0px"
	 viewBox="0 0 428 310" style="enable-background:new 0 0 428 310;" xml:space="preserve">
<style type="text/css">
	.st0{fill:#8B8B8B;}
	.st1{fill:#8B8B8B;fill-opacity:0.4;}
</style>
<g>
	<path class="st0" d="M485.7,106c-5-9.3-12.2-18.1-21.3-26c-18.3-15.9-46.1-27.5-74.5-29.1C358.3,49.2,336.4,62,311,71.3
		c-10.9,4-22.7,6.9-35.5,7.2c-14,0.3-28.1-2.2-41.7-5.7c-27.2-6.9-52.8-17-81.1-20.9c-25.9-3.6-52.2-3.2-76.8,1.2
		C-5,67.5-77.3,139.4-37.6,200.2c20.3,31,65.6,54.6,113.2,58.8c53.7,4.8,102.7-13.1,156.4-8.5c27,2.3,52.5,10.9,77.8,18.3
		c24,7,49.8,13.8,75.3,11.7c47.3-3.8,70.7-35.7,86.5-62.9C491.1,184.3,505.6,142.7,485.7,106z"/>
	<path class="st1" d="M-32.7,74.3c6-10.4,14.1-19.9,23.9-28C11.2,29.8,40,19.8,68.4,21.5c31.6,2,52,20.1,76.3,34.3
		C155.2,62,166.5,67,179.3,69c13.9,2.2,28.2,1,42-1.3c27.8-4.6,54.3-13.2,82.9-14.2c26.2-0.9,52.2,3,76.3,11.4
		c78.9,27.6,143.3,122.2,97.4,189.1c-23.4,34.1-71,56.2-118.8,55c-53.9-1.3-100.8-28.9-154.6-30.4c-27.1-0.7-53.4,6.1-79.3,11.6
		c-24.6,5.2-51,9.8-76.1,4.1c-46.6-10.6-66.6-51.5-79.5-85.8C-46.2,166.5-56.3,115.2-32.7,74.3z"/>
</g>
</svg>
